<?xml version="1.0" encoding="UTF-8"?>
<svg version="1.1" viewBox="0 0 1600 1600" width="1280" height="1280" xmlns="http://www.w3.org/2000/svg">
<path transform="translate(799 -.121)" d="m0 0c33.6-1.08 67 12.3 96.9 26.1 0.7 0.33 1.41 0.65 2.13 0.99 7.34 3.38 14.7 6.77 22 10.2 10.5 4.89 21.1 9.61 31.8 14.2 10.1 4.37 20 9.01 29.9 14 8.12 4.13 16.4 7.92 24.7 11.6 12.5 5.63 24.9 11.4 37.3 17.4 12.6 6.05 25.4 11.9 38.2 17.6 17.2 7.56 34.2 15.6 51.1 23.7 10.3 4.94 20.7 9.74 31.1 14.5 3.53 1.63 7.05 3.27 10.6 4.91 16.6 7.73 33.3 15.4 50.1 22.7 11.7 5.11 23.2 10.4 34.7 16 7.42 3.6 14.9 7.1 22.3 10.6 0.68 0.32 1.36 0.64 2.07 0.97 12.1 5.65 24.2 11.3 36.3 16.8 3.5 1.6 7 3.22 10.5 4.83 3.26 1.5 6.52 3 9.79 4.51 1.58 0.72 3.16 1.45 4.74 2.18 9.14 4.21 18.3 8.36 27.5 12.4 5.26 2.34 10.5 4.75 15.7 7.25 6.06 2.9 12.2 5.69 18.3 8.38 6.53 2.85 12.9 5.95 19.2 9.18 18.4 9.32 37.3 17.5 56.1 25.9 20.7 9.25 41.4 18.6 61.6 28.9 0.98 0.49 1.97 0.99 2.98 1.51 11 5.73 20.3 13.1 29.3 21.6 0.61 0.54 1.23 1.08 1.86 1.63 11.7 10.7 20.1 27.3 21.4 43.1 0.69 16.6-0.07 32.4-10.2 46.3-0.76 1.06-1.51 2.12-2.29 3.22-11.7 16-27 24.7-44.5 33.3-0.68 0.34-1.36 0.68-2.07 1.03-13.9 6.92-28 13.4-42.2 19.7-6.86 3.08-13.7 6.25-20.5 9.43-8.34 3.89-16.7 7.75-25.1 11.6-6.74 3.08-13.5 6.2-20.2 9.37-14.5 6.88-29.1 13.6-43.8 20.1-18.4 8.11-36.6 16.6-54.8 25-4.08 1.9-8.16 3.79-12.2 5.68-10.9 5.05-21.8 10.1-32.6 15.2-12.9 6.1-25.8 12.2-38.8 18.1-0.72 0.32-1.43 0.65-2.17 0.99-8.54 3.9-17.1 7.73-25.7 11.5-0.84 0.37-1.68 0.73-2.55 1.11-1.27 0.55-1.27 0.55-2.57 1.11-17 7.39-33.8 15.1-50.4 23.3-32.9 16.2-66.5 31-100 46.1-16.6 7.51-33.2 15.2-49.7 23-12.1 5.77-24.3 11.5-36.5 17-1.18 0.55-1.18 0.55-2.38 1.1-8.38 3.84-16.8 7.65-25.2 11.4-8.74 3.91-17.4 7.99-26.1 12.1-0.73 0.34-1.46 0.68-2.21 1.03-7.28 3.43-14.6 6.87-21.8 10.3-13.5 6.47-27 12.7-41 18.2-1.11 0.44-2.22 0.88-3.37 1.34-12.4 4.8-24.6 7.52-37.9 7.68-0.91 0.02-1.82 0.03-2.76 0.04-21.1 0.24-41.1-0.17-61.7-5.31-1-0.25-2-0.49-3.03-0.75-14.7-3.76-28.4-9.63-42.2-16-2.45-1.12-4.9-2.21-7.37-3.28-9.22-4-18.3-8.31-27.3-12.7-21.3-10.3-42.8-20.2-64.4-29.9-0.91-0.42-1.83-0.83-2.77-1.26-10.9-4.92-10.9-4.92-21.8-9.83-11-4.93-21.8-10-32.4-15.5-10.1-5.13-20.4-9.86-30.8-14.4-0.75-0.33-1.49-0.66-2.26-1l-9.33-4.11c-9.7-4.27-19.4-8.6-29-13-0.89-0.4-1.79-0.81-2.72-1.22-11.6-5.22-23-10.6-34.2-16.4-11.7-5.95-23.7-11.3-35.7-16.7-8.77-3.95-17.5-8-26.2-12-11.5-5.31-23-10.6-34.5-15.8-18.9-8.56-37.8-17.2-56.4-26.3-0.71-0.35-1.43-0.7-2.16-1.06-1.08-0.53-1.08-0.53-2.18-1.07-17-8.34-34.2-16.2-51.6-23.8-8.1-3.57-16.2-7.22-24.2-10.9-0.72-0.33-1.44-0.66-2.18-0.99-12.5-5.73-25-11.6-37.4-17.5-11.8-5.59-23.6-11.1-35.4-16.6-0.84-0.39-1.67-0.77-2.53-1.17-9.11-4.23-18.2-8.41-27.4-12.5-7.41-3.32-14.8-6.75-22.1-10.3-6.82-3.31-13.7-6.55-20.6-9.58-26.8-11.8-51.8-29.1-62.9-57.4-5.23-18-2.6-34 5-51 0.41-0.92 0.81-1.84 1.23-2.8 16.1-32.8 56.8-47.4 88.3-60.3 15.3-6.27 30.2-13.1 45.2-20 7.09-3.28 14.2-6.45 21.4-9.62 10-4.47 20-9.14 29.8-13.9 6.77-3.28 13.6-6.35 20.5-9.31 9.16-3.91 18.1-8.13 27.1-12.5 8.01-3.88 16.1-7.63 24.2-11.3 5.31-2.42 10.6-4.85 15.9-7.33 11.8-5.54 23.7-10.9 35.7-16.1 11.5-4.91 22.8-10.1 34.1-15.5 0.8-0.38 1.59-0.75 2.41-1.14 5.7-2.72 11.4-5.44 17.1-8.17 6.37-3.05 12.8-6.09 19.1-9.12 0.79-0.38 1.57-0.75 2.38-1.13 12.4-5.89 24.9-11.5 37.5-17.1 9.74-4.28 19.4-8.7 28.9-13.4 9.13-4.46 18.4-8.63 27.7-12.6 10.8-4.59 21.4-9.38 31.9-14.4 0.7-0.33 1.4-0.66 2.12-1 5.13-2.43 10.2-4.87 15.4-7.31 6.43-3.06 12.9-6.13 19.3-9.19 0.81-0.38 1.61-0.76 2.44-1.15 12.6-5.97 25.2-11.7 37.9-17.4 20.4-9.1 40.8-18.5 61-28 12.2-5.76 24.4-11.5 36.7-17.2 0.84-0.39 1.68-0.77 2.54-1.18 4.87-2.26 9.75-4.51 14.6-6.75l5.01-2.31c10.8-5.01 21.5-9.56 32.9-13.1 0.65-0.21 1.3-0.42 1.98-0.63 16-5.09 31.9-8.22 48.7-9.18z" fill="#000100"/>
<path transform="translate(244 1071)" d="m0 0c12.2 6.27 24.6 11.9 37.2 17.4 15.7 6.81 31.3 13.8 46.7 21.2l12 5.67c1.43 0.67 2.86 1.34 4.28 2.01 2.16 1.01 4.32 2.03 6.48 3.05 2.16 1.01 4.31 2.02 6.46 3.03 0.71 0.34 1.42 0.67 2.15 1.02 4.14 1.95 8.28 3.9 12.4 5.87 15 7.15 30.1 14 45.5 20.4 12 5.05 23.7 10.5 35.3 16.3 10.6 5.21 21.2 10.3 31.9 15.1 0.67 0.31 1.35 0.61 2.05 0.93 4.06 1.83 8.12 3.65 12.2 5.47 3.38 1.52 6.75 3.05 10.1 4.57 0.66 0.3 1.32 0.6 2.01 0.91 1.98 0.89 3.96 1.79 5.94 2.68 0.65 0.3 1.3 0.59 1.97 0.89 4.32 1.95 8.65 3.91 13 5.86 1.01 0.46 2.02 0.92 3.06 1.39 14.1 6.4 28.2 13 42.2 19.7 24.4 11.6 48.8 22.9 73.4 34 4.59 2.08 9.17 4.19 13.8 6.32 77.9 35.9 151 46.8 233 17.2 30-11.1 59.1-24.7 87.8-38.8 0.71-0.35 1.42-0.7 2.16-1.06 0.72-0.35 1.43-0.7 2.17-1.06 1.47-0.72 2.93-1.44 4.39-2.15 1.09-0.54 1.09-0.54 2.21-1.08 12.7-6.2 25.5-12 38.4-17.7 9.99-4.4 19.9-8.92 29.8-13.6 0.66-0.31 1.32-0.62 2.01-0.94 2.62-1.24 5.25-2.48 7.87-3.72 6.34-2.99 12.7-5.95 19-8.9 1.12-0.51 2.23-1.03 3.37-1.56 1.77-0.82 3.53-1.63 5.3-2.45 4.35-2.02 8.7-4.04 13.1-6.06 16.8-7.81 33.6-15.6 50.5-23.2 24.2-11 48.4-22.1 72.5-33.5 23.7-11.2 47.6-22.2 71.6-32.8 9.92-4.43 19.8-9 29.6-13.6 24.7-11.5 24.7-11.5 35.5-16.1 0.81-0.35 1.62-0.7 2.46-1.06 5.04-2.12 9.32-3.48 14.8-3.63 0.86-0.04 1.71-0.07 2.6-0.11 9.6 1.22 18.6 6.27 27.3 10.4 1.24 0.58 2.48 1.16 3.71 1.73 4.91 2.3 9.82 4.61 14.7 6.92 14.8 6.98 29.8 13.7 44.8 20.3 69.7 30.5 69.7 30.5 84.8 43.1 0.85 0.7 1.71 1.39 2.6 2.11 14.5 12.3 25.5 29.1 27.2 48.3 0.06 1.19 0.12 2.39 0.18 3.61 0.1 1.73 0.1 1.73 0.2 3.49 0.67 21.7-6.69 37.8-21.2 53.5-0.73 0.83-1.46 1.65-2.22 2.5-15.1 16.2-38 23.9-57.8 32.6-33.2 14.7-66.1 30.1-99 45.4-23.7 11-47.4 22-71.2 32.8-17.3 7.91-34.6 15.9-51.8 24-29.5 13.8-59.1 27.4-88.8 40.9-18.6 8.46-37.2 17-55.8 25.6-1.21 0.57-2.42 1.14-3.63 1.7-7 3.28-7 3.28-14 6.55-5.84 2.74-11.7 5.47-17.5 8.19-0.87 0.4-1.73 0.8-2.62 1.22-13.1 6.09-26.3 12-39.6 17.7-16 6.95-31.7 14.4-47.4 22.1-18.9 9.28-38.2 17.8-57.4 26.5-10.9 4.93-21.9 9.89-32.7 14.9-1.09 0.5-2.17 1.01-3.29 1.53-5.46 2.54-10.9 5.11-16.4 7.72-18.4 8.8-36.7 17.1-55.9 24.1-0.87 0.32-1.74 0.64-2.64 0.96-65.5 23.4-123 0.23-182-28-5.47-2.6-10.9-5.24-16.4-7.88-12.1-5.9-24.4-11.5-36.7-16.9-11.2-4.91-22.2-9.96-33.3-15.2-0.7-0.33-1.39-0.66-2.11-1-3.52-1.66-7.04-3.33-10.6-5-29.5-14-59-27.9-88.9-41.1-11.4-5.01-22.6-10.3-33.8-15.6-11.2-5.3-22.4-10.5-33.7-15.7-10.1-4.65-20.2-9.33-30.2-14.2-10.2-4.92-20.4-9.51-30.8-14.1-13.1-5.88-26.2-11.8-39.2-18-0.74-0.35-1.47-0.7-2.23-1.06-3.69-1.75-7.37-3.5-11.1-5.26-43.7-20.8-43.7-20.8-88-40.6-9.93-4.3-19.6-8.98-29.4-13.8-11.6-5.66-23.2-11.2-34.9-16.5-0.67-0.3-1.35-0.61-2.05-0.93-6.67-3.01-13.4-6-20-8.98-1.95-0.87-3.91-1.74-5.86-2.61-2.37-1.06-4.75-2.12-7.12-3.17-6.01-2.67-11.9-5.47-17.8-8.44-5.57-2.82-11.2-5.51-16.9-8.08-0.73-0.33-1.45-0.66-2.2-0.99-2.94-1.33-5.88-2.65-8.83-3.97-8.27-3.71-16.4-7.55-24.5-11.8-1.02-0.53-1.02-0.53-2.06-1.08-21.1-11.3-37.6-27.3-45.8-50.1-5.36-18-1.79-37 6.62-53.4 9.42-17.1 24.8-28.2 41.4-37.8 0.99-0.57 1.99-1.14 3.01-1.73 11-6.1 22.6-10.9 34.2-15.8 6.04-2.52 12.1-5.08 18.1-7.64 1.19-0.51 2.38-1.01 3.61-1.53 22.9-9.75 45.5-20.2 67.6-31.6 25.8-13.2 40.8-12.5 66.8 1.02z" fill="#000100"/>
<path transform="translate(1403 661)" d="m0 0c6.16 2.59 12 5.79 17.8 8.99 7.14 3.8 14.5 6.87 22 9.89 10.1 4.06 20 8.44 29.8 13.2 9.28 4.56 18.6 8.97 28.1 13.1 78.3 34.5 78.3 34.5 93.3 66.9 2.91 7.93 4.63 16.6 5 25 0.04 0.75 0.08 1.5 0.12 2.27 0.45 16.3-3.32 30.4-14.1 42.7-0.71 0.83-1.41 1.65-2.14 2.5-23.3 26.7-56.8 39.8-88.9 53-15.5 6.37-30.7 13.4-45.9 20.5-5.82 2.75-11.6 5.5-17.5 8.25-1.47 0.69-2.94 1.38-4.41 2.08-8.92 4.2-17.9 8.35-26.9 12.4-6.69 2.98-13.3 6.06-20 9.15-1.16 0.54-2.32 1.08-3.51 1.63-1.87 0.87-3.74 1.74-5.6 2.61-8.75 4.07-17.5 8.14-26.3 12.2-0.88 0.4-1.75 0.81-2.65 1.22-12.9 5.97-25.8 11.9-38.7 17.8-9.86 4.5-19.7 9.04-29.5 13.6-43.6 20.4-43.6 20.4-64.8 29.6-17.2 7.46-34 15.6-50.9 23.6-18.8 8.94-37.7 17.7-56.7 26.2-24.6 11-49 22.2-73.3 33.7-1.11 0.52-1.11 0.52-2.24 1.06-0.75 0.36-1.5 0.71-2.27 1.07-16.5 7.82-33 15.5-49.7 23-7.98 3.61-16 7.25-23.9 10.9-0.73 0.33-1.46 0.67-2.21 1.01-9.6 4.38-19.2 8.82-28.7 13.3-30.6 14.3-60.4 27.4-93.4 35-1.81 0.42-3.62 0.85-5.42 1.3-16.1 3.91-32.6 0.91-48.5-2.63-1.28-0.27-2.56-0.55-3.87-0.84-16.9-3.73-33.4-7.78-49.1-15.2-0.94-0.43-1.89-0.87-2.86-1.32-7.42-3.48-14.8-7.07-22.1-10.7-15.7-7.7-31.6-15-47.6-22.1-16.2-7.17-32.3-14.6-48.3-22.2-0.79-0.38-1.57-0.75-2.38-1.13-3.87-1.83-7.73-3.66-11.6-5.5-8.21-3.89-16.5-7.67-24.8-11.3-5.84-2.59-11.6-5.31-17.4-8.12-24.2-11.7-48.6-22.9-73.1-33.8-13.8-6.1-27.6-12.5-41.2-19-11.9-5.69-23.9-11.3-35.9-16.9-0.87-0.41-1.74-0.81-2.63-1.23-11.1-5.14-22.3-10.2-33.5-15-12.4-5.42-24.6-11.4-36.7-17.3-13.9-6.74-27.8-13.3-41.8-19.6-11-4.99-22-10.1-33-15.3-11.4-5.42-22.9-10.8-34.4-16-0.67-0.3-1.34-0.6-2.02-0.91-2.73-1.23-5.45-2.47-8.18-3.7-8.38-3.79-16.8-7.61-25.1-11.4-0.79-0.36-1.57-0.72-2.38-1.09-10.1-4.62-20.1-9.35-30.1-14.2-11.9-5.8-23.9-11.3-35.9-16.8-1.35-0.61-1.35-0.61-2.74-1.24-8.74-3.95-17.5-7.88-26.3-11.7-21.9-9.53-40.6-20.7-57.8-37.4-0.68-0.65-1.36-1.3-2.06-1.98-11.5-12-16.4-29.7-16.2-45.9 1.32-18.9 10.1-35 22.2-49.1 0.57-0.67 1.14-1.35 1.72-2.05 14.8-16.3 39.5-25.3 59.3-33.8 1.82-0.79 3.64-1.59 5.46-2.38l15.5-6.75c13.6-5.88 27-11.9 40.3-18.4 16-7.74 32.2-15 48.7-21.9 0.65-0.28 1.31-0.56 1.99-0.84 5.06-2.06 9.68-3.07 15.1-3.23 0.85-0.03 1.7-0.07 2.57-0.11 12 1.55 23.9 8.54 34.9 13.4 1.94 0.87 3.89 1.73 5.83 2.59 19.6 8.71 39.1 17.7 58.4 27 15.2 7.4 30.7 14.4 46.1 21.4 5.46 2.47 10.9 4.95 16.4 7.44 1.35 0.61 2.69 1.21 4.03 1.82 15.7 7.13 31.4 14.4 47 21.6 4.59 2.12 9.18 4.24 13.8 6.35 12 5.52 24 11.1 36 16.8 26.3 12.5 26.3 12.5 53 24.3 13.1 5.5 25.8 11.7 38.6 17.7 6.83 3.23 13.7 6.4 20.6 9.57 7.04 3.24 14 6.53 21 9.94 19.9 9.77 40.1 18.8 60.4 27.6 3.61 1.57 7.21 3.15 10.8 4.74 18.1 8 36.6 14.6 55.8 19.6 1.9 0.5 1.9 0.5 3.83 1 22.2 5.59 44.2 5.8 66.9 5.32 1.12-0.03 2.25-0.05 3.42-0.07 23.1-0.5 45.4-1.69 67.6-8.69 1.12-0.34 2.24-0.69 3.4-1.05 3.73-1.17 7.44-2.37 11.2-3.57 1.8-0.58 1.8-0.58 3.63-1.16 1.67-0.56 1.67-0.56 3.37-1.13 1-0.33 2-0.66 3.03-1 2.71-0.97 2.71-0.97 4.41-4.09 2.04-1.12 2.04-1.12 4.61-2.2 0.96-0.42 1.93-0.83 2.92-1.26 1.06-0.44 2.12-0.89 3.22-1.35 2.3-0.99 4.61-1.99 6.92-2.99 1.81-0.78 1.81-0.78 3.66-1.58 5.96-2.61 11.8-5.36 17.7-8.12 0.91-0.42 0.91-0.42 1.85-0.86 7.92-3.71 15.8-7.46 23.7-11.2 16.2-7.71 32.3-15.4 48.6-22.8 0.67-0.31 1.34-0.61 2.03-0.92 4.23-1.93 8.47-3.83 12.7-5.71 1.07-0.47 2.15-0.95 3.26-1.45 1.02-0.44 2.04-0.88 3.1-1.33 1.31-0.58 1.31-0.58 2.65-1.16 2.48-0.88 4.75-1.45 7.31-1.96 4.7-1 8.78-2.71 13.1-4.77 0.78-0.36 1.56-0.72 2.36-1.1 2.51-1.17 5.02-2.35 7.53-3.54l5.28-2.46c3.51-1.64 7.03-3.29 10.5-4.94 5.32-2.5 10.6-4.97 16-7.43 8.25-3.82 16.5-7.66 24.7-11.5 12.7-5.96 25.3-11.9 38.1-17.6 11.7-5.21 23.3-10.6 34.9-15.9 0.87-0.41 1.74-0.81 2.63-1.22l10.6-4.92c9.26-4.3 18.5-8.59 27.8-12.9 0.8-0.37 1.6-0.74 2.43-1.12 12.5-5.78 25-11.5 37.6-17.2 8.29-3.78 16.6-7.6 24.8-11.6 19.9-9.59 40.2-18.6 60.5-27.4 4.16-1.81 8.24-3.65 12.2-5.77 7.08-3.59 14.4-2.46 21.7 0.14z" fill="#000100"/>
</svg>
