<?xml version="1.0" encoding="UTF-8"?>
<svg version="1.1" viewBox="0 0 1600 1600" width="1280" height="1280" xmlns="http://www.w3.org/2000/svg">
<path transform="translate(541 87.5)" d="m0 0c3.56 0.02 7.12 0.01 10.7 0.01 5.97 0.01 11.9 0.02 17.9 0.05 6.83 0.03 13.7 0.04 20.5 0.04 7.38 0 14.8 0.01 22.1 0.03 2.08 0.01 4.16 0.01 6.24 0.01 70.2 0.05 70.2 0.05 96.4 19.3 1.19 0.85 1.19 0.85 2.4 1.71 20.1 16 32.3 46 44.1 68.3 4.71 8.8 9.81 17.3 15 25.8 5.63 9.16 11 18.4 16.2 27.8 4.24 7.65 8.55 15.2 12.9 22.8 0.95 1.65 0.95 1.65 1.92 3.33 3.43 5.93 6.9 11.8 10.4 17.7 7.56 12.8 14.7 25.8 21.9 38.8 1.32 2.39 2.64 4.78 3.96 7.17 0.93 1.67 1.84 3.34 2.76 5.01 3.61 6.54 7.41 12.9 11.4 19.3 3.14 5.09 6.12 10.3 9.1 15.4 0.64 1.12 1.29 2.23 1.95 3.38 7.91 13.8 15.6 27.6 23.3 41.5 6.53 11.8 13.3 23.4 20.3 34.9 9.95 16.3 19.2 32.9 28.5 49.6 8.21 14.8 16.6 29.5 25.4 43.9 3.94 6.48 7.37 13.2 10.8 19.9 3.9 7.62 7.9 14.9 12.8 21.9 3.69 5.32 6.7 11 9.74 16.7 4.7 8.83 9.65 17.2 16 24.9 0.77 1.04 1.55 2.07 2.35 3.14 3.79 3.7 7.52 3.58 12.6 3.63 1.21-0.02 2.41-0.04 3.65-0.05 1.28 0 2.57 0.01 3.89 0.01 3.57 0.01 7.13-0.01 10.7-0.05 3.84-0.02 7.69-0.02 11.5-0.02 6.67 0 13.3-0.02 20-0.05 9.65-0.06 19.3-0.08 29-0.09 15.7-0.02 31.4-0.06 47.1-0.12 15.2-0.06 30.4-0.11 45.6-0.14 0.93-0.01 1.87-0.01 2.83-0.01 10.2-0.02 20.4-0.05 30.6-0.07 2.72 0 5.44-0.01 8.16-0.01 1.79-0.01 3.59-0.01 5.38-0.01 11.4-0.03 22.7-0.06 34.1-0.1 5.76-0.02 11.5-0.04 17.3-0.05 3.8-0.02 7.6-0.03 11.4-0.05 41.6-0.19 41.6-0.19 59.2 2.67 1.61 0.25 1.61 0.25 3.25 0.51 62.2 10.4 122 33.6 170 74.9 0.54 0.46 1.08 0.91 1.64 1.38 8.38 7.08 15.1 15.1 21.8 23.7 1.6 1.96 3.3 3.78 5.03 5.63 4.5 5.1 7.47 11 10.6 17 0.45 0.88 0.45 0.88 0.92 1.79 12.2 23.9 19.8 49.8 12.1 76.5-13 37.8-40.3 70.5-73 93-0.68 0.47-1.35 0.93-2.05 1.41-43.6 29.8-94.1 50.2-147 54.2-3.87 0.2-3.87 0.2-6.97 1.36-2.4 0.21-4.79 0.37-7.19 0.5-0.7 0.04-1.4 0.08-2.12 0.12-2.99 0.18-5.97 0.34-8.96 0.51-2.18 0.12-4.36 0.24-6.55 0.37-1.3 0.07-2.61 0.15-3.95 0.22-3.25 0.16-3.25 0.16-6.23 1.28-1.71 0.09-3.42 0.12-5.13 0.12h-3.23c-1.17-0.01-2.35-0.01-3.56-0.02h-3.78c-3.46-0.01-6.93-0.02-10.4-0.03-3.73-0.01-7.47-0.01-11.2-0.02-6.48-0.01-13-0.02-19.4-0.03-10.2-0.03-20.5-0.04-30.7-0.05-3.5-0.01-7-0.01-10.5-0.01-0.87-0.01-1.75-0.01-2.65-0.01-9.96-0.01-19.9-0.02-29.9-0.04h-2.76c-14.8-0.02-29.5-0.05-44.3-0.09-15.2-0.03-30.3-0.05-45.4-0.06-9.35-0.01-18.7-0.02-28-0.05-6.4-0.02-12.8-0.03-19.2-0.03-3.69 0-7.39 0-11.1-0.02-4.01-0.02-8.02-0.02-12-0.01-1.75-0.02-1.75-0.02-3.53-0.03-6.8 0.03-14.4 0.08-19.8 4.84-7.22 8.21-12.1 19.4-17.4 28.8-3.2 5.7-6.45 11.4-9.79 17-4.22 7.11-8.25 14.3-12.2 21.6-6.83 12.4-13.8 24.6-20.8 36.9-2.43 4.23-4.85 8.47-7.27 12.7-5.92 10.4-11.8 20.8-17.9 31-3.89 6.59-7.69 13.2-11.5 19.9-0.34 0.6-0.68 1.19-1.03 1.81-3.14 5.5-6.28 11-9.42 16.5-2.03 3.57-4.07 7.15-6.11 10.7-0.5 0.87-0.5 0.87-1.01 1.77-4.4 7.71-8.87 15.4-13.4 23-4.75 7.93-9.17 16-13.5 24.2-3.83 7.23-7.73 14.3-12.3 21.1-4.86 7.2-8.95 14.8-13 22.4-4.77 9.05-9.68 18-15 26.7-9.13 15-17.8 30.2-26.1 45.7-4.8 8.98-9.93 17.7-15.3 26.4-8.07 13.1-15.6 26.5-22.9 40.1-5.28 9.77-10.9 19.3-16.6 28.9-3.12 5.22-6.21 10.4-9.16 15.8-10.7 19.4-26 36.1-45.5 46.8-1.06 0.58-2.12 1.16-3.21 1.76-6.74 3.3-12.8 4.75-20.2 5.39-0.91 0.08-1.82 0.16-2.75 0.25-11.2 0.91-22.5 0.87-33.7 0.83h-7.11c-4.95 0-9.9-0.01-14.8-0.02-6.19-0.02-12.4-0.02-18.6-0.02-23.2 0-46.4-0.08-69.6-0.46-1.98-0.04-3.95-0.06-5.93-0.09-38.4-0.45-38.4-0.45-51.4-12.8-8.62-10.1-11.8-19.9-10.9-33 3.77-35.8 17.5-71.4 27.9-106 5.05-16.6 9.65-33.4 14.2-50.2 4.7-17.2 9.5-34.3 14.5-51.4 4.09-14.1 8.16-28.2 12.2-42.3 0.19-0.67 0.38-1.35 0.58-2.05 0.98-3.48 1.96-6.95 2.95-10.4 7.24-25.6 14.6-51.2 22-76.8 5.59-19.2 11.1-38.5 16.6-57.7 5.98-21.3 12.1-42.5 18.2-63.7 0.51-1.74 1.01-3.49 1.52-5.23 0.42-1.48 0.85-2.95 1.28-4.43 0.96-3.29 1.7-6.41 2.01-9.83 0.08-0.77 0.15-1.54 0.23-2.34 0.05-0.56 0.1-1.13 0.15-1.72-6.28-0.92-12.4-1.16-18.7-1.18-1.06-0.01-2.11-0.02-3.2-0.03l-10.6-0.06c-2.53-0.01-5.07-0.03-7.6-0.05-7.6-0.05-15.2-0.09-22.8-0.12-2.86-0.02-5.73-0.03-8.6-0.05-12.7-0.07-25.3-0.13-38-0.19-3.09-0.01-6.18-0.03-9.28-0.04-0.77 0-1.53-0.01-2.33-0.01-12.4-0.06-24.9-0.13-37.3-0.21-12.8-0.09-25.6-0.15-38.4-0.21-7.17-0.03-14.4-0.06-21.5-0.12-6.75-0.05-13.5-0.08-20.3-0.09-2.47-0.01-4.94-0.03-7.41-0.05-12.4-0.12-23.9 0.11-35.9 3.55-3.11 0.86-3.11 0.86-6.11 0.86-0.24 0.72-0.48 1.43-0.73 2.17-1.47 3.26-3.28 5.4-5.65 8.08-7.54 8.77-14 18.4-20.4 27.9-4.72 6.95-9.54 13.7-14.8 20.3-9.73 12.2-18.9 24.8-28.1 37.4-4.84 6.58-9.74 13.1-14.6 19.6-4.37 5.81-8.69 11.6-13 17.5-0.58 0.79-1.16 1.57-1.75 2.38-2.55 3.46-5.09 6.92-7.61 10.4-0.79 1.09-1.59 2.18-2.39 3.27-0.66 0.92-1.32 1.84-2.01 2.79-1.89 2.18-3.29 2.96-5.86 4.15-0.54 0.89-1.08 1.78-1.63 2.69-5.52 8.72-15.8 12.1-25.4 14.3-6.1 1.09-12.1 1.15-18.3 1.15-1.67 0-1.67 0-3.37 0.01-3.67 0.01-7.34 0.01-11 0.01-2.56 0-5.12 0.01-7.69 0.01-5.37 0.01-10.7 0.01-16.1 0.01-6.18 0-12.4 0.01-18.5 0.02-5.97 0.02-11.9 0.02-17.9 0.02-2.53 0-5.06 0.01-7.59 0.01-3.54 0.01-7.09 0.01-10.6 0-1.03 0.01-2.06 0.02-3.13 0.02-9.1-0.04-18.8-0.42-26.8-5.2-0.87-0.5-1.74-1-2.63-1.52-6.2-4.01-6.2-4.01-7.37-7.54-1.12-0.52-1.12-0.52-2.25-1.06-4.99-3.52-7.58-10-8.75-15.9-0.86-11.4 0.54-21.2 3.92-32 0.81-2.58 1.58-5.18 2.35-7.77 0.89-2.99 1.77-5.97 2.67-8.95 4.05-13.5 7.87-27.1 11.7-40.7 1.12-3.98 2.25-7.96 3.38-11.9 4.72-16.6 9.41-33.2 14-49.9 0.2-0.74 0.41-1.48 0.62-2.25 1.64-5.94 3.29-11.9 4.93-17.8 7.43-26.9 15.1-53.7 22.8-80.5 12.4-42.6 19.1-77.9 6.87-122-0.35-1.26-0.7-2.53-1.06-3.83-3.62-13-7.31-26-11-39.1-1.5-5.27-2.99-10.5-4.48-15.8-0.2-0.68-0.39-1.35-0.59-2.05-3.07-10.8-6.13-21.7-9.17-32.5-0.42-1.51-0.84-3.01-1.27-4.51-0.31-1.11-0.31-1.11-0.63-2.25-0.85-3.02-1.69-6.03-2.54-9.05-0.42-1.51-0.85-3.02-1.27-4.53-6.16-21.9-12.4-43.8-18.9-65.6-4.94-16.8-9.59-33.8-13.9-50.8-2.24-8.8-4.68-17.5-7.51-26.1-3.21-10.8-2.8-20.2 1.98-30.4 3.83-5.87 8.34-10.8 14-15 1.08-0.83 1.08-0.83 2.18-1.69 8.39-3.91 18.3-3.7 27.4-3.92 0.66-0.02 1.33-0.04 2.02-0.06 19.7-0.54 39.5-0.52 59.3-0.51 5.47 0 10.9-0.02 16.4-0.03 4.27-0.02 8.54-0.02 12.8-0.02 2.02 0 4.04 0 6.06-0.01 2.8-0.01 5.61-0.01 8.42 0 1.21-0.01 1.21-0.01 2.46-0.02 13.4 0.07 25.5 4.23 35.4 13.5 1.57 1.83 2.42 3.38 3.3 5.61 0.88 3.3 0.88 3.3 3.37 4.25l1.88 0.94c0.75 3.13 0.75 3.13 1 6h4c1.79 2.13 1.79 2.13 3.62 5.13 1.05 1.64 1.05 1.64 2.11 3.32 0.37 0.59 0.74 1.17 1.12 1.77 1.9 2.95 3.92 5.81 5.96 8.66 0.62 0.87 0.62 0.87 1.26 1.77 3.47 4.81 7.12 9.45 10.8 14.1 6.3 7.96 12.1 16.3 17.9 24.6 4.2 6.01 8.59 11.8 13.2 17.5 3.29 4.07 5.95 8.26 8.55 12.8 1.42 2.28 2.96 4.16 4.76 6.13 2.38 2.63 3.47 4.54 3.69 8.19 0.58 0.06 1.17 0.11 1.78 0.17 3.23 1.21 4 3.2 5.72 6.14 1.73 2.95 3.23 5.43 5.67 7.84 2.42 2.46 2.52 4.49 2.83 7.85 0.73 0.06 1.47 0.11 2.23 0.17 3.77 1.13 4.84 2.96 7.08 6.14 0.7 0.97 1.39 1.93 2.11 2.93 1.58 2.76 1.58 2.76 1.58 6.76 0.92 0.29 1.85 0.58 2.81 0.88 3.19 1.12 3.19 1.12 6.19 3.12 2.67 0.31 5.25 0.51 7.94 0.62 1.2 0.06 1.2 0.06 2.42 0.11 9.2 0.4 18.4 0.4 27.6 0.37 2.04-0.01 4.09-0.01 6.13-0.02 35.7-0.07 71.4-0.36 107-0.6 13.5-0.09 27.1-0.17 40.6-0.26 0.86-0.01 1.73-0.01 2.62-0.02 28.9-0.18 57.8-0.27 86.7-0.2-0.25-0.86-0.25-0.86-0.5-1.75-5.91-20.7-5.91-20.7-8.67-30.4-0.56-1.98-1.12-3.97-1.68-5.95-0.29-1.02-0.57-2.04-0.87-3.1-5.96-21.1-12-42.2-18-63.3-13.1-45.7-13.1-45.7-19.4-68-0.46-1.63-0.46-1.63-0.93-3.3-3.96-14-7.79-27.9-11.5-41.9-4.26-15.9-8.95-31.7-13.6-47.6-4.19-14.2-8.31-28.3-12.4-42.5-0.27-0.97-0.54-1.93-0.83-2.92-1.18-4.14-2.35-8.28-3.53-12.4-3-10.5-6-21-9.01-31.6-2.62-9.16-5.24-18.3-7.86-27.5-0.23-0.82-0.47-1.64-0.71-2.48-0.93-3.28-1.87-6.56-2.8-9.84-2.55-8.91-5.09-17.8-7.65-26.7-1.58-5.48-3.15-11-4.72-16.4-0.62-2.17-1.24-4.34-1.87-6.5-13.6-46.9-13.6-46.9-4.45-64.8 3.49-5.5 7.62-10.3 13-14 0.73-0.56 1.47-1.13 2.23-1.71 17.1-11.7 41.1-9.88 60.9-9.76z" fill="#000100"/>
</svg>
